# xmcd CD database file
#
# Track frame offsets:
#	150
#	35728
#	91629
#	126300
#	164198
#	224578
#	278594
#
# Disc length: 4436 seconds
#
# Revision: 0
# Processed by: cddbd v1.5.1PL0 Copyright (c) Steve Scherf et al.
# Submitted via: CDex 1.51
#
DISCID=67115207
DTITLE=George Raphael - Reiki 3 - Transformation
DYEAR=2003
DGENRE=New Age
TTITLE0=Beginnings
TTITLE1=Realisations
TTITLE2=Divine Mystery
TTITLE3=Destiny's Door
TTITLE4=Dawn
TTITLE5=On Forever's Edge
TTITLE6=Compassion
EXTD=YEAR: 2003
EXTT0=
EXTT1=
EXTT2=
EXTT3=
EXTT4=
EXTT5=
EXTT6=
PLAYORDER=
